<?xml version="1.0" encoding="utf-8"?>
<!-- Generator: Adobe Illustrator 16.0.0, SVG Export Plug-In . SVG Version: 6.00 Build 0)  -->
<!DOCTYPE svg PUBLIC "-//W3C//DTD SVG 1.1//EN" "http://www.w3.org/Graphics/SVG/1.1/DTD/svg11.dtd">
<svg version="1.1" id="Layer_1" xmlns="http://www.w3.org/2000/svg" xmlns:xlink="http://www.w3.org/1999/xlink" x="0px" y="0px"
	 width="2000px" height="2000px" viewBox="0 0 2000 2000" enable-background="new 0 0 2000 2000" xml:space="preserve">
<rect fill="#FFFFFF" width="2000" height="2000"/>
<linearGradient id="SVGID_1_" gradientUnits="userSpaceOnUse" x1="-292.5361" y1="-1187.4019" x2="-158.498" y2="-1053.3636" gradientTransform="matrix(1 0 0 1 798 2119.5)">
	<stop  offset="0" style="stop-color:#FF805F"/>
	<stop  offset="0.5" style="stop-color:#B74BDD"/>
	<stop  offset="1" style="stop-color:#0379FF"/>
</linearGradient>
<path fill="url(#SVGID_1_)" d="M622.341,1046.198c0.008,0.013,0.017,0.021,0.023,0.035l0.036,0.036
	C622.379,1046.248,622.36,1046.223,622.341,1046.198z M596.89,1015.16l-0.002,0.002l-19.516,17.479l0.008,0.014h-0.008v27.44
	c0,13.604,11.027,24.63,24.631,24.63c13.521,0,24.498-10.892,24.628-24.381c2.321,0.724,4.791,1.113,7.348,1.113
	c13.603,0,24.633-11.025,24.633-24.631c0-4.85-1.403-9.371-3.822-13.18c12.665-1.021,22.624-11.622,22.624-24.555
	c0-12.917-9.945-23.513-22.595-24.548c2.4-3.802,3.793-8.307,3.793-13.139c0-13.602-11.03-24.631-24.633-24.631
	c-2.558,0-5.024,0.391-7.348,1.114c-0.106-13.509-11.094-24.428-24.628-24.428c-13.604,0-24.631,11.028-24.631,24.633v27.417
	l0.025,0.023l19.49,17.457l0.003,0.002L596.89,1015.16L596.89,1015.16z M616.943,938.096c0,2.871-0.811,5.554-2.217,7.829
	l-4.264,4.484l-5.17,5.438h-18.232v-17.751c0-8.252,6.688-14.94,14.941-14.94C610.253,923.153,616.943,929.844,616.943,938.096z
	 M606.58,1014.034v-29.881h46.202c8.251,0,14.94,6.691,14.94,14.94c0,8.252-6.689,14.94-14.94,14.94H606.58L606.58,1014.034z
	 M587.061,1042.343h18.232l5.174,5.439l4.259,4.479c1.407,2.273,2.218,4.96,2.218,7.834c0,8.252-6.69,14.941-14.941,14.941
	c-8.253,0-14.942-6.689-14.942-14.941L587.061,1042.343L587.061,1042.343z M601.85,1023.727h39.317
	c4.621,2.539,7.753,7.454,7.753,13.101c0,8.252-6.691,14.94-14.941,14.94c-3.849,0-7.356-1.452-10.005-3.846l-0.006-0.006
	c-0.562-0.506-1.086-1.056-1.564-1.646l-0.003-0.002l-0.035-0.037l-5.493-5.774l-7.172-7.543l-0.037-0.037l-0.212-0.225h-17.569
	L601.85,1023.727z M591.92,965.537h17.529l0.208-0.217l0.041-0.046l7.171-7.54l5.5-5.782l0.389-0.409l0.003-0.003
	c0.25-0.285,0.513-0.56,0.783-0.823v-0.001c2.693-2.629,6.375-4.25,10.435-4.25c8.25,0,14.941,6.69,14.941,14.942
	c0,5.614-3.097,10.503-7.672,13.055h-39.36L591.92,965.537z M577.372,965.513v0.023h0.025L577.372,965.513z M577.372,965.513v0.023
	h0.025L577.372,965.513z M622.76,951.54l0.783-0.824C623.273,950.979,623.01,951.255,622.76,951.54z M622.402,1046.271
	c0.479,0.59,1.003,1.14,1.564,1.646L622.402,1046.271z M596.888,982.993h0.002v1.161h-0.002V982.993z M596.888,1014.034v1.128
	l0.002-0.002v-1.126H596.888L596.888,1014.034z M522.567,1046.271l0.036-0.037c0.007-0.015,0.014-0.022,0.021-0.035
	C522.605,1046.223,522.586,1046.248,522.567,1046.271z M548.077,982.995l0.001-0.002l19.492-17.456l0.024-0.024v-27.418
	c0-13.603-11.025-24.631-24.631-24.631c-13.536,0-24.521,10.918-24.629,24.428c-2.322-0.724-4.789-1.114-7.347-1.114
	c-13.604,0-24.631,11.028-24.631,24.631c0,4.831,1.39,9.337,3.792,13.139c-12.65,1.035-22.597,11.631-22.597,24.548
	c0,12.933,9.96,23.532,22.625,24.553c-2.419,3.813-3.82,8.331-3.82,13.182c0,13.604,11.028,24.631,24.631,24.631
	c2.558,0,5.025-0.392,7.347-1.113c0.132,13.489,11.11,24.383,24.629,24.383c13.604,0,24.631-11.025,24.631-24.632v-27.44h-0.01
	l0.01-0.014l-19.517-17.479l-0.001-0.002V982.995L548.077,982.995z M542.964,923.153c8.252,0,14.941,6.688,14.941,14.94v17.752
	h-18.233l-5.171-5.438l-4.263-4.483c-1.405-2.276-2.215-4.959-2.215-7.831C528.021,929.844,534.712,923.153,542.964,923.153z
	 M492.185,1014.034c-8.251,0-14.941-6.688-14.941-14.94c0-8.249,6.69-14.939,14.941-14.939h46.202v29.881L492.185,1014.034
	L492.185,1014.034z M557.905,1060.096c0,8.252-6.689,14.941-14.942,14.941c-8.25,0-14.94-6.689-14.94-14.941
	c0-2.874,0.81-5.558,2.217-7.834l4.259-4.479l5.174-5.44h18.233V1060.096L557.905,1060.096z M553.086,1032.654h-17.569l-0.212,0.223
	l-0.037,0.037l-7.172,7.543l-5.492,5.776l-0.036,0.034l-0.003,0.002c-0.479,0.593-1.002,1.141-1.564,1.646l-0.007,0.006
	c-2.649,2.393-6.157,3.846-10.005,3.846c-8.251,0-14.942-6.688-14.942-14.939c0-5.646,3.132-10.563,7.753-13.1h39.317
	L553.086,1032.654z M543.079,974.462h-39.36c-4.577-2.551-7.673-7.44-7.673-13.055c0-8.25,6.691-14.94,14.941-14.94
	c4.06,0,7.743,1.621,10.435,4.25l0,0c0.271,0.264,0.533,0.54,0.784,0.824l0.002,0.002l0.389,0.409l5.499,5.783l7.171,7.54
	l0.041,0.044l0.207,0.217h17.529L543.079,974.462z M567.595,965.513v0.023h-0.023L567.595,965.513z M567.595,965.513v0.023h-0.023
	L567.595,965.513z M522.207,951.54l-0.784-0.824C521.693,950.979,521.955,951.255,522.207,951.54z M522.563,1046.271
	c-0.477,0.59-1.002,1.14-1.563,1.646L522.563,1046.271z M548.077,982.993L548.077,982.993l0.001,1.161h-0.001V982.993z
	 M548.078,1014.034v1.128l-0.001-0.002L548.078,1014.034L548.078,1014.034L548.078,1014.034z"/>
<path d="M763.309,980.182c-2.412,0-2.598,0.187-2.598,4.271v27.853c0,10.397,0,21.91,12.997,21.91c2.6,0,5.57-1.299,7.8-2.786
	c1.857,0.559,2.971,2.6,2.6,4.827c-5.199,5.569-15.228,10.771-26.739,10.771c-15.413,0-20.797-8.914-20.797-21.168v-41.407
	c0-3.9-0.187-4.271-3.528-4.271h-5.756c-2.044-0.744-2.6-4.457-1.116-5.759c5.757-2.042,10.957-5.384,15.414-8.354
	c3.342-2.415,7.984-6.314,13.741-14.483c1.298-0.743,4.641-0.558,5.57,0.93v13.927c0,3.527,0.186,3.712,3.527,3.712h16.525
	c0.929,0.744,1.484,1.857,1.484,3.53c0,2.042-0.558,5.384-2.414,6.498H763.309L763.309,980.182z M815.672,1000.422
	c-4.271,0-4.642,0.37-4.642,3.343c0,13.926,8.913,27.48,26.182,27.48c5.199,0,12.255-1.112,17.269-9.655
	c2.043-0.371,4.827,1.114,4.827,4.271c-7.612,15.782-21.354,21.166-32.495,21.166c-25.067,0-38.623-17.641-38.623-37.878
	c0-23.397,16.898-41.595,40.108-41.595c19.313,0,29.709,12.442,29.709,26.738c0,3.529-0.93,6.128-6.685,6.128L815.672,1000.422
	L815.672,1000.422z M827.928,992.251c2.6,0,5.569-0.371,7.612-1.671c0.928-0.559,1.3-2.414,1.3-4.271
	c0-6.127-3.527-10.212-9.841-10.212c-7.798,0-14.482,7.428-14.482,13.368c0,2.602,2.6,2.786,8.541,2.786H827.928z M940.638,976.468
	c-5.385,0.743-8.17,1.485-11.142,3.341c-2.6,1.673-9.656,9.471-13.928,14.855c-2.228,2.971-3.528,4.641-3.528,5.572
	c0,1.111,2.229,4.824,3.899,7.238l12.627,18.756c6.685,9.654,10.213,11.325,16.525,12.068l2.044,0.187
	c1.485,1.301,1.485,5.756-0.558,6.5c-8.171-0.372-15.413-0.56-22.468-0.56c-7.428,0-16.155,0.188-24.697,0.56
	c-1.67-0.744-2.042-5.199-0.558-6.5l4.086-0.742c2.6-0.56,3.157-1.301,3.157-2.043c0-0.744-0.743-2.601-2.229-5.015
	c-2.599-4.086-5.013-7.983-7.984-12.254c-2.6,3.898-5.2,8.168-7.614,12.254c-1.483,2.6-2.227,4.271-2.227,5.385
	c0,0.93,0.742,1.485,3.342,1.856l2.971,0.559c1.485,1.114,1.114,5.756-0.37,6.5c-5.387-0.372-10.956-0.56-16.712-0.56
	c-4.271,0-8.729,0.188-14.483,0.56c-1.672-0.932-2.228-5.016-0.372-6.5l4.643-0.742c3.157-0.559,7.057-1.856,8.728-3.715
	c2.786-2.784,12.627-15.596,15.227-19.495c1.113-1.858,1.673-3.157,1.673-4.086c0-0.741-1.486-3.341-5.941-9.839l-10.028-15.413
	c-3.713-5.756-7.241-7.241-11.325-8.171l-3.899-0.927c-1.301-0.931-1.301-5.943,0.557-6.5c7.242,0.371,12.255,0.558,22.468,0.558
	c6.686,0,13.185-0.187,19.868-0.558c2.229,0.743,2.415,5.385,0.372,6.5l-2.227,0.557c-1.486,0.185-2.787,0.742-2.787,1.3
	c0,0.742,0.372,1.671,1.672,3.898c2.413,4.085,5.014,7.612,7.613,11.325c1.856-2.598,5.014-7.055,7.984-11.512
	c1.113-1.672,1.299-2.414,1.299-3.341c0-0.742-1.113-1.301-2.97-1.671l-2.044-0.558c-1.671-1.114-1.299-5.756,0.559-6.5
	c5.385,0.372,10.212,0.559,16.897,0.559c4.643,0,9.47-0.187,14.112-0.559c1.857,0.558,2.042,5.386,0.371,6.5L940.638,976.468z
	 M986.313,980.182c-2.412,0-2.6,0.187-2.6,4.271v27.853c0,10.397,0,21.91,12.998,21.91c2.602,0,5.57-1.299,7.8-2.786
	c1.856,0.559,2.97,2.6,2.6,4.827c-5.199,5.569-15.226,10.771-26.738,10.771c-15.412,0-20.797-8.914-20.797-21.168v-41.407
	c0-3.9-0.186-4.271-3.528-4.271h-5.755c-2.043-0.744-2.6-4.457-1.115-5.759c5.755-2.042,10.955-5.384,15.412-8.354
	c3.342-2.415,7.985-6.314,13.741-14.483c1.3-0.743,4.642-0.558,5.57,0.93v13.927c0,3.527,0.187,3.712,3.527,3.712h16.526
	c0.93,0.744,1.487,1.857,1.487,3.53c0,2.042-0.56,5.384-2.417,6.498H986.313L986.313,980.182z M1014.352,1031.988
	c0-8.727,6.686-15.413,15.041-15.413c8.912,0,15.039,7.429,15.039,15.413c0,8.542-6.127,15.039-15.039,15.039
	C1021.965,1047.027,1014.352,1041.087,1014.352,1031.988z M1125.205,970.712c2.413,2.042,3.896,4.642,3.896,9.655
	c0,5.57-2.6,10.584-4.826,10.584c-0.929,0-2.601-0.372-2.971-0.93c-5.199-7.427-12.441-13.926-19.125-13.926
	c-12.07,0-18.57,13.74-18.57,26.553c0,14.671,9.472,29.523,26.555,29.523c6.871,0,12.441-2.228,16.525-9.099
	c2.229-0.186,4.827,1.114,4.827,4.085c-4.085,9.284-15.226,19.868-32.864,19.868c-23.398,0-39.365-15.598-39.365-37.509
	c0-26.366,21.354-41.965,46.421-41.965C1112.021,967.555,1120.191,968.854,1125.205,970.712z M1136.527,1008.777
	c-0.373-26.554,20.797-41.223,42.707-41.223c21.912,0,41.596,13.369,41.596,39.553c0,27.109-19.869,39.922-42.709,39.922
	C1156.025,1047.027,1136.527,1034.402,1136.527,1008.777z M1163.267,1004.691c0,19.496,6.126,33.796,16.896,33.796
	c10.584,0,13.927-12.069,13.927-28.78c-0.37-18.012-5.386-33.609-15.969-33.609C1169.95,976.097,1163.267,984.454,1163.267,1004.691
	z M1242.181,995.222c0-7.428,0-9.47-3.526-11.882l-2.601-1.673c-1.301-1.115-1.301-4.456,0-5.57
	c8.539-2.414,21.353-7.428,27.106-11.141c1.486,0,2.602,0.557,3.344,1.671c-0.371,3.714-0.742,6.313-0.742,7.983
	c0,1.301,0.371,1.856,1.856,2.228c5.014-3.155,10.397-9.284,18.198-9.284c5.012,0,10.212,3.899,10.212,10.955
	c0,8.543-5.94,12.07-11.886,12.07c-2.597,0-4.826-1.115-7.24-3.343c-4.271-3.528-5.942-3.713-7.058-3.713
	c-2.6,0-3.527,4.085-3.527,11.142v28.597c0,12.995,0.744,14.481,6.87,15.038l5.942,0.56c1.484,1.113,1.484,5.385-0.186,6.499
	c-8.916-0.37-16.341-0.56-25.068-0.56c-7.612,0-15.784,0.188-21.91,0.56c-1.674-1.114-1.674-5.386-0.188-6.499l3.526-0.372
	c6.127-0.742,6.872-2.229,6.872-15.226v-28.041L1242.181,995.222L1242.181,995.222z M1337.988,980.182c-2.412,0-2.6,0.187-2.6,4.271
	v27.853c0,10.397,0,21.91,12.998,21.91c2.601,0,5.569-1.299,7.801-2.786c1.854,0.559,2.971,2.6,2.598,4.827
	c-5.198,5.569-15.226,10.771-26.739,10.771c-15.409,0-20.795-8.914-20.795-21.168v-41.407c0-3.9-0.186-4.271-3.526-4.271h-5.758
	c-2.043-0.744-2.601-4.457-1.113-5.759c5.757-2.042,10.955-5.384,15.41-8.354c3.344-2.415,7.984-6.314,13.741-14.483
	c1.302-0.743,4.644-0.558,5.571,0.93v13.927c0,3.527,0.186,3.712,3.527,3.712h16.525c0.929,0.744,1.484,1.857,1.484,3.53
	c0,2.042-0.559,5.384-2.412,6.498H1337.988L1337.988,980.182z M1390.354,1000.422c-4.271,0-4.644,0.37-4.644,3.343
	c0,13.926,8.914,27.48,26.181,27.48c5.201,0,12.257-1.112,17.271-9.655c2.043-0.371,4.828,1.114,4.828,4.271
	c-7.612,15.782-21.354,21.166-32.496,21.166c-25.067,0-38.622-17.641-38.622-37.878c0-23.397,16.897-41.595,40.108-41.595
	c19.312,0,29.708,12.442,29.708,26.738c0,3.529-0.929,6.128-6.687,6.128L1390.354,1000.422L1390.354,1000.422z M1402.608,992.251
	c2.597,0,5.569-0.371,7.612-1.671c0.929-0.559,1.301-2.414,1.301-4.271c0-6.127-3.529-10.212-9.844-10.212
	c-7.798,0-14.481,7.428-14.481,13.368c0,2.602,2.601,2.786,8.543,2.786H1402.608z M1515.317,976.468
	c-5.387,0.743-8.171,1.485-11.142,3.341c-2.601,1.673-9.656,9.471-13.928,14.855c-2.229,2.971-3.529,4.641-3.529,5.572
	c0,1.111,2.229,4.824,3.901,7.238l12.627,18.756c6.684,9.654,10.211,11.325,16.526,12.068l2.043,0.187
	c1.484,1.301,1.484,5.756-0.56,6.5c-8.171-0.372-15.413-0.56-22.467-0.56c-7.429,0-16.156,0.188-24.696,0.56
	c-1.673-0.744-2.043-5.199-0.558-6.5l4.085-0.742c2.6-0.56,3.154-1.301,3.154-2.043c0-0.744-0.741-2.601-2.227-5.015
	c-2.6-4.086-5.014-7.983-7.984-12.254c-2.599,3.898-5.199,8.168-7.611,12.254c-1.487,2.6-2.229,4.271-2.229,5.385
	c0,0.93,0.742,1.485,3.343,1.856l2.971,0.559c1.484,1.114,1.115,5.756-0.369,6.5c-5.387-0.372-10.955-0.56-16.713-0.56
	c-4.271,0-8.728,0.188-14.483,0.56c-1.67-0.932-2.229-5.016-0.372-6.5l4.642-0.742c3.159-0.559,7.06-1.856,8.73-3.715
	c2.784-2.784,12.625-15.596,15.225-19.495c1.114-1.858,1.67-3.157,1.67-4.086c0-0.741-1.481-3.341-5.939-9.839l-10.026-15.413
	c-3.714-5.756-7.242-7.241-11.327-8.171l-3.898-0.927c-1.302-0.931-1.302-5.943,0.558-6.5c7.241,0.371,12.256,0.558,22.467,0.558
	c6.688,0,13.187-0.187,19.87-0.558c2.229,0.743,2.411,5.385,0.369,6.5l-2.226,0.557c-1.488,0.185-2.787,0.742-2.787,1.3
	c0,0.742,0.37,1.671,1.672,3.898c2.413,4.085,5.013,7.612,7.612,11.325c1.856-2.598,5.013-7.055,7.985-11.512
	c1.112-1.672,1.299-2.414,1.299-3.341c0-0.742-1.113-1.301-2.973-1.671l-2.042-0.558c-1.671-1.114-1.3-5.756,0.558-6.5
	c5.387,0.372,10.214,0.559,16.898,0.559c4.642,0,9.471-0.187,14.112-0.559c1.854,0.558,2.042,5.386,0.371,6.5L1515.317,976.468z"/>
</svg>
